<svg xmlns="http://www.w3.org/2000/svg" viewBox="0 0 900 620" width="900" height="620" role="img">
  <defs>
    <linearGradient id="bg" x1="0" y1="0" x2="1" y2="1">
      <stop offset="0" stop-color="#141828"/><stop offset="1" stop-color="#0B0D14"/>
    </linearGradient>
    <radialGradient id="glow" cx="0.34" cy="0.18" r="0.72">
      <stop offset="0" stop-color="#57FD6B" stop-opacity="0.13"/>
      <stop offset="1" stop-color="#57FD6B" stop-opacity="0"/>
    </radialGradient>
  </defs>
  <rect width="900" height="620" fill="url(#bg)"/>
  <rect width="900" height="620" fill="url(#glow)"/>
  <g stroke-linecap="round" stroke-linejoin="round">
    <circle cx="320" cy="440" r="3.5" fill="#222840"/>
    <circle cx="160" cy="400" r="3.5" fill="#222840"/>
    <circle cx="120" cy="300" r="3.5" fill="#222840"/>
    <circle cx="140" cy="100" r="3.5" fill="#222840"/>
    <circle cx="240" cy="140" r="3.5" fill="#222840"/>
    <circle cx="580" cy="140" r="3.5" fill="#222840"/>
    <circle cx="20" cy="320" r="3.5" fill="#222840"/>
    <circle cx="520" cy="100" r="3.5" fill="#222840"/>
    <circle cx="80" cy="360" r="3.5" fill="#222840"/>
    <circle cx="480" cy="300" r="3.5" fill="#222840"/>
    <circle cx="560" cy="220" r="3.5" fill="#222840"/>
    <path d="M 120 80 L 160 120" fill="none" stroke="#4A5578" stroke-width="3"/>
    <path d="M 160 200 L 120 240" fill="none" stroke="#4A5578" stroke-width="3"/>
    <path d="M 120 240" fill="none" stroke="#4A5578" stroke-width="3"/>
    <path d="M 160 120 L 160 200 L 160 300" fill="none" stroke="#4A5578" stroke-width="3"/>
    <path d="M 80 -20 L 80 40 L 120 80" fill="none" stroke="#4A5578" stroke-width="3"/>
    <path d="M 180 -20 L 180 40 L 220 80" fill="none" stroke="#57FD6B" stroke-width="4.5"/>
    <path d="M 320 -20 L 320 100 L 320 140 L 300 160 L 300 220 L 340 260 L 340 360" fill="none" stroke="#4A5578" stroke-width="3"/>
    <path d="M 400 60 L 360 100" fill="none" stroke="#4A5578" stroke-width="3"/>
    <path d="M 360 100 L 360 200 L 320 240 L 320 300 L 320 380" fill="none" stroke="#4A5578" stroke-width="3"/>
    <path d="M 400 -20 L 400 60 L 400 120 L 360 160 L 360 240" fill="none" stroke="#4A5578" stroke-width="3"/>
    <path d="M 460 180 L 500 220" fill="none" stroke="#4A5578" stroke-width="3"/>
    <path d="M 500 220" fill="none" stroke="#4A5578" stroke-width="3"/>
    <path d="M 487 -13 L 487 87 L 487 167 L 467 187 L 467 227" fill="none" stroke="#4A5578" stroke-width="3" opacity="0.5"/>
    <path d="M 494 -6 L 494 94 L 494 174 L 474 194 L 474 234" fill="none" stroke="#4A5578" stroke-width="3" opacity="0.5"/>
    <path d="M 501 1 L 501 101 L 501 181 L 481 201 L 481 241" fill="none" stroke="#4A5578" stroke-width="3" opacity="0.5"/>
    <path d="M 480 -20 L 480 80 L 480 160 L 460 180 L 460 220" fill="none" stroke="#4A5578" stroke-width="3"/>
    <circle cx="120" cy="240" r="8" fill="none" stroke="#4A5578" stroke-width="3"/>
    <circle cx="160" cy="300" r="11" fill="none" stroke="#4A5578" stroke-width="3"/><circle cx="160" cy="300" r="4" fill="#4A5578"/>
    <circle cx="120" cy="80" r="8" fill="none" stroke="#4A5578" stroke-width="3"/>
    <circle cx="220" cy="80" r="7" fill="#57FD6B"/>
    <circle cx="340" cy="360" r="8" fill="none" stroke="#4A5578" stroke-width="3"/>
    <circle cx="320" cy="380" r="8" fill="none" stroke="#4A5578" stroke-width="3"/>
    <circle cx="360" cy="240" r="8" fill="none" stroke="#4A5578" stroke-width="3"/>
    <circle cx="500" cy="220" r="8" fill="none" stroke="#4A5578" stroke-width="3"/>
    <circle cx="467" cy="227" r="11" fill="none" stroke="#4A5578" stroke-width="3"/><circle cx="467" cy="227" r="4" fill="#4A5578"/>
    <circle cx="474" cy="234" r="8" fill="none" stroke="#4A5578" stroke-width="3"/>
    <circle cx="481" cy="241" r="5.5" fill="#4A5578"/>
    <circle cx="460" cy="220" r="11" fill="none" stroke="#4A5578" stroke-width="3"/><circle cx="460" cy="220" r="4" fill="#4A5578"/>
  </g>
</svg>
