<svg xmlns="http://www.w3.org/2000/svg" viewBox="0 0 900 620" width="900" height="620" role="img">
  <defs>
    <linearGradient id="bg" x1="0" y1="0" x2="1" y2="1">
      <stop offset="0" stop-color="#141828"/><stop offset="1" stop-color="#0B0D14"/>
    </linearGradient>
    <radialGradient id="glow" cx="0.66" cy="0.18" r="0.72">
      <stop offset="0" stop-color="#57FD6B" stop-opacity="0.13"/>
      <stop offset="1" stop-color="#57FD6B" stop-opacity="0"/>
    </radialGradient>
  </defs>
  <rect width="900" height="620" fill="url(#bg)"/>
  <rect width="900" height="620" fill="url(#glow)"/>
  <g stroke-linecap="round" stroke-linejoin="round">
    <circle cx="560" cy="360" r="3.5" fill="#222840"/>
    <circle cx="700" cy="480" r="3.5" fill="#222840"/>
    <circle cx="440" cy="420" r="3.5" fill="#222840"/>
    <circle cx="480" cy="480" r="3.5" fill="#222840"/>
    <circle cx="840" cy="360" r="3.5" fill="#222840"/>
    <circle cx="480" cy="460" r="3.5" fill="#222840"/>
    <circle cx="800" cy="440" r="3.5" fill="#222840"/>
    <path d="M 260 -20 L 260 80 L 240 100 L 240 160 L 260 180 L 260 260 L 280 280" fill="none" stroke="#4A5578" stroke-width="3"/>
    <path d="M 320 100 L 360 140" fill="none" stroke="#4A5578" stroke-width="3"/>
    <path d="M 360 140 L 360 240" fill="none" stroke="#4A5578" stroke-width="3"/>
    <path d="M 340 -20 L 340 80 L 320 100 L 320 160 L 280 200 L 280 260 L 300 280" fill="none" stroke="#4A5578" stroke-width="3"/>
    <path d="M 460 20 L 420 60" fill="none" stroke="#4A5578" stroke-width="3"/>
    <path d="M 400 160 L 440 200" fill="none" stroke="#4A5578" stroke-width="3"/>
    <path d="M 440 200 L 440 280 L 400 320 L 400 340" fill="none" stroke="#4A5578" stroke-width="3"/>
    <path d="M 400 360 L 440 400" fill="none" stroke="#4A5578" stroke-width="3"/>
    <path d="M 440 400" fill="none" stroke="#4A5578" stroke-width="3"/>
    <path d="M 420 60 L 420 140 L 400 160 L 400 220 L 360 260 L 360 320 L 400 360 L 400 400" fill="none" stroke="#4A5578" stroke-width="3"/>
    <path d="M 420 200 L 380 240" fill="none" stroke="#4A5578" stroke-width="3"/>
    <path d="M 380 240 L 380 340" fill="none" stroke="#4A5578" stroke-width="3"/>
    <path d="M 460 -20 L 460 20 L 460 60 L 420 100 L 420 200 L 420 300 L 400 320" fill="none" stroke="#4A5578" stroke-width="3"/>
    <path d="M 480 -20 L 480 100 L 480 180 L 440 220 L 440 320 L 440 340" fill="none" stroke="#57FD6B" stroke-width="4.5"/>
    <path d="M 540 180 L 500 220" fill="none" stroke="#4A5578" stroke-width="3"/>
    <path d="M 500 220" fill="none" stroke="#4A5578" stroke-width="3"/>
    <path d="M 540 220 L 500 260" fill="none" stroke="#4A5578" stroke-width="3"/>
    <path d="M 500 260" fill="none" stroke="#4A5578" stroke-width="3"/>
    <path d="M 600 -20 L 600 80 L 580 100 L 580 140 L 540 180 L 540 220 L 540 260 L 540 280" fill="none" stroke="#4A5578" stroke-width="3"/>
    <path d="M 660 -20 L 660 100" fill="none" stroke="#4A5578" stroke-width="3"/>
    <path d="M 740 380 L 780 420" fill="none" stroke="#4A5578" stroke-width="3"/>
    <path d="M 780 420" fill="none" stroke="#4A5578" stroke-width="3"/>
    <path d="M 740 -20 L 740 100 L 720 120 L 720 220 L 700 240 L 700 340 L 740 380 L 740 400" fill="none" stroke="#4A5578" stroke-width="3"/>
    <path d="M 787 -13 L 787 67 L 747 107 L 747 167" fill="none" stroke="#4A5578" stroke-width="3" opacity="0.5"/>
    <path d="M 794 -6 L 794 74 L 754 114 L 754 174" fill="none" stroke="#4A5578" stroke-width="3" opacity="0.5"/>
    <path d="M 801 1 L 801 81 L 761 121 L 761 181" fill="none" stroke="#4A5578" stroke-width="3" opacity="0.5"/>
    <path d="M 780 -20 L 780 60 L 740 100 L 740 160" fill="none" stroke="#4A5578" stroke-width="3"/>
    <circle cx="280" cy="280" r="5.5" fill="#4A5578"/>
    <circle cx="360" cy="240" r="8" fill="none" stroke="#4A5578" stroke-width="3"/>
    <circle cx="300" cy="280" r="11" fill="none" stroke="#4A5578" stroke-width="3"/><circle cx="300" cy="280" r="4" fill="#4A5578"/>
    <circle cx="400" cy="340" r="8" fill="none" stroke="#4A5578" stroke-width="3"/>
    <circle cx="440" cy="400" r="8" fill="none" stroke="#4A5578" stroke-width="3"/>
    <circle cx="400" cy="400" r="8" fill="none" stroke="#4A5578" stroke-width="3"/>
    <circle cx="380" cy="340" r="5.5" fill="#4A5578"/>
    <circle cx="400" cy="320" r="8" fill="none" stroke="#4A5578" stroke-width="3"/>
    <circle cx="440" cy="340" r="13" fill="none" stroke="#57FD6B" stroke-width="4"/><circle cx="440" cy="340" r="5" fill="#57FD6B"/>
    <circle cx="500" cy="220" r="5.5" fill="#4A5578"/>
    <circle cx="500" cy="260" r="8" fill="none" stroke="#4A5578" stroke-width="3"/>
    <circle cx="540" cy="280" r="8" fill="none" stroke="#4A5578" stroke-width="3"/>
    <circle cx="660" cy="100" r="11" fill="none" stroke="#4A5578" stroke-width="3"/><circle cx="660" cy="100" r="4" fill="#4A5578"/>
    <circle cx="780" cy="420" r="8" fill="none" stroke="#4A5578" stroke-width="3"/>
    <circle cx="740" cy="400" r="5.5" fill="#4A5578"/>
    <circle cx="747" cy="167" r="11" fill="none" stroke="#4A5578" stroke-width="3"/><circle cx="747" cy="167" r="4" fill="#4A5578"/>
    <circle cx="754" cy="174" r="5.5" fill="#4A5578"/>
    <circle cx="761" cy="181" r="5.5" fill="#4A5578"/>
    <circle cx="740" cy="160" r="11" fill="none" stroke="#4A5578" stroke-width="3"/><circle cx="740" cy="160" r="4" fill="#4A5578"/>
  </g>
</svg>
