<svg xmlns="http://www.w3.org/2000/svg" viewBox="0 0 200 200" width="200" height="200">
  <!-- Background circle -->
  <circle cx="100" cy="100" r="95" fill="#000000" stroke="#FFFFFF" stroke-width="2"/>
  
  <!-- AI/Circuit pattern -->
  <!-- Main central node -->
  <circle cx="100" cy="100" r="8" fill="#FFFFFF"/>
  
  <!-- Neural network connections -->
  <g stroke="#FFFFFF" stroke-width="2" fill="none">
    <!-- Top connections -->
    <line x1="100" y1="92" x2="100" y2="60"/>
    <line x1="100" y1="60" x2="75" y2="35"/>
    <line x1="100" y1="60" x2="125" y2="35"/>
    
    <!-- Bottom connections -->
    <line x1="100" y1="108" x2="100" y2="140"/>
    <line x1="100" y1="140" x2="75" y2="165"/>
    <line x1="100" y1="140" x2="125" y2="165"/>
    
    <!-- Left connections -->
    <line x1="92" y1="100" x2="60" y2="100"/>
    <line x1="60" y1="100" x2="35" y2="75"/>
    <line x1="60" y1="100" x2="35" y2="125"/>
    
    <!-- Right connections -->
    <line x1="108" y1="100" x2="140" y2="100"/>
    <line x1="140" y1="100" x2="165" y2="75"/>
    <line x1="140" y1="100" x2="165" y2="125"/>
    
    <!-- Diagonal connections -->
    <line x1="92" y1="92" x2="65" y2="65"/>
    <line x1="108" y1="92" x2="135" y2="65"/>
    <line x1="92" y1="108" x2="65" y2="135"/>
    <line x1="108" y1="108" x2="135" y2="135"/>
  </g>
  
  <!-- Network nodes -->
  <g fill="#FFFFFF">
    <!-- Top nodes -->
    <circle cx="75" cy="35" r="4"/>
    <circle cx="125" cy="35" r="4"/>
    <circle cx="100" cy="60" r="4"/>
    
    <!-- Bottom nodes -->
    <circle cx="75" cy="165" r="4"/>
    <circle cx="125" cy="165" r="4"/>
    <circle cx="100" cy="140" r="4"/>
    
    <!-- Left nodes -->
    <circle cx="35" cy="75" r="4"/>
    <circle cx="35" cy="125" r="4"/>
    <circle cx="60" cy="100" r="4"/>
    
    <!-- Right nodes -->
    <circle cx="165" cy="75" r="4"/>
    <circle cx="165" cy="125" r="4"/>
    <circle cx="140" cy="100" r="4"/>
    
    <!-- Diagonal nodes -->
    <circle cx="65" cy="65" r="4"/>
    <circle cx="135" cy="65" r="4"/>
    <circle cx="65" cy="135" r="4"/>
    <circle cx="135" cy="135" r="4"/>
  </g>
  
  <!-- Target/crosshair overlay for "offensive" element -->
  <g stroke="#FFFFFF" stroke-width="1.5" fill="none">
    <circle cx="100" cy="100" r="25"/>
    <circle cx="100" cy="100" r="35"/>
    <line x1="100" y1="65" x2="100" y2="75"/>
    <line x1="100" y1="125" x2="100" y2="135"/>
    <line x1="65" y1="100" x2="75" y2="100"/>
    <line x1="125" y1="100" x2="135" y2="100"/>
  </g>
  
  <!-- Data flow indicators -->
  <g stroke="#FFFFFF" stroke-width="1" fill="#FFFFFF" opacity="0.7">
    <!-- Small arrows showing AI processing -->
    <polygon points="45,50 50,47 50,53"/>
    <polygon points="155,50 150,47 150,53"/>
    <polygon points="45,150 50,147 50,153"/>
    <polygon points="155,150 150,147 150,153"/>
  </g>
</svg>
